<svg xmlns="http://www.w3.org/2000/svg" width="512" height="256" viewBox="0 0 512 256">
<!-- Original greyscale material detail. Row 1: plain, oak, stone, plaster. Row 2: cloth, crust, iron, pottery. -->
<defs><clipPath id="tile"><rect width="128" height="128"/></clipPath></defs>
<g transform="translate(0 0)" clip-path="url(#tile)"><rect width="128" height="128" fill="#808080"/>
</g>
<g transform="translate(128 0)" clip-path="url(#tile)"><rect width="128" height="128" fill="#808080"/>
<path d="M-8 -4 C22 -10 30 3 61 -1 S101 -9 136 -4" fill="none" stroke="rgb(72,72,72)" stroke-width="2.5"/><path d="M-8 -1 C27 -7 33 5 64 1 S102 -5 136 -1" fill="none" stroke="#aaaaaa" stroke-width="1.2"/>
<path d="M-8 7 C22 7 30 14 61 10 S101 2 136 7" fill="none" stroke="rgb(105,105,105)" stroke-width="1.2"/><path d="M-8 10 C27 10 33 16 64 12 S102 6 136 10" fill="none" stroke="#aaaaaa" stroke-width="1.2"/>
<path d="M-8 18 C22 24 30 25 61 21 S101 13 136 18" fill="none" stroke="rgb(105,105,105)" stroke-width="1.2"/><path d="M-8 21 C27 27 33 27 64 23 S102 17 136 21" fill="none" stroke="#aaaaaa" stroke-width="1.2"/>
<path d="M-8 29 C22 23 30 36 61 32 S101 24 136 29" fill="none" stroke="rgb(72,72,72)" stroke-width="2.5"/><path d="M-8 32 C27 26 33 38 64 34 S102 28 136 32" fill="none" stroke="#aaaaaa" stroke-width="1.2"/>
<path d="M-8 40 C22 40 30 47 61 43 S101 35 136 40" fill="none" stroke="rgb(105,105,105)" stroke-width="1.2"/><path d="M-8 43 C27 43 33 49 64 45 S102 39 136 43" fill="none" stroke="#aaaaaa" stroke-width="1.2"/>
<path d="M-8 51 C22 57 30 58 61 54 S101 46 136 51" fill="none" stroke="rgb(105,105,105)" stroke-width="1.2"/><path d="M-8 54 C27 60 33 60 64 56 S102 50 136 54" fill="none" stroke="#aaaaaa" stroke-width="1.2"/>
<path d="M-8 62 C22 56 30 69 61 65 S101 57 136 62" fill="none" stroke="rgb(72,72,72)" stroke-width="2.5"/><path d="M-8 65 C27 59 33 71 64 67 S102 61 136 65" fill="none" stroke="#aaaaaa" stroke-width="1.2"/>
<path d="M-8 73 C22 73 30 80 61 76 S101 68 136 73" fill="none" stroke="rgb(105,105,105)" stroke-width="1.2"/><path d="M-8 76 C27 76 33 82 64 78 S102 72 136 76" fill="none" stroke="#aaaaaa" stroke-width="1.2"/>
<path d="M-8 84 C22 90 30 91 61 87 S101 79 136 84" fill="none" stroke="rgb(105,105,105)" stroke-width="1.2"/><path d="M-8 87 C27 93 33 93 64 89 S102 83 136 87" fill="none" stroke="#aaaaaa" stroke-width="1.2"/>
<path d="M-8 95 C22 89 30 102 61 98 S101 90 136 95" fill="none" stroke="rgb(72,72,72)" stroke-width="2.5"/><path d="M-8 98 C27 92 33 104 64 100 S102 94 136 98" fill="none" stroke="#aaaaaa" stroke-width="1.2"/>
<path d="M-8 106 C22 106 30 113 61 109 S101 101 136 106" fill="none" stroke="rgb(105,105,105)" stroke-width="1.2"/><path d="M-8 109 C27 109 33 115 64 111 S102 105 136 109" fill="none" stroke="#aaaaaa" stroke-width="1.2"/>
<path d="M-8 117 C22 123 30 124 61 120 S101 112 136 117" fill="none" stroke="rgb(105,105,105)" stroke-width="1.2"/><path d="M-8 120 C27 126 33 126 64 122 S102 116 136 120" fill="none" stroke="#aaaaaa" stroke-width="1.2"/>
<path d="M26 58 Q43 43 64 58 Q43 72 26 58Z" fill="#777777" stroke="#555555" stroke-width="1.6"/><path d="M34 58 Q44 51 55 58 Q44 65 34 58Z" fill="#929292"/><path d="M39 58 Q44 55 49 58" fill="none" stroke="#555555" stroke-width="2"/><path d="M93 9 Q103 18 99 32 M15 92 Q34 88 57 93 M76 107 L106 110" fill="none" stroke="#666666" stroke-width="1.4"/>
</g>
<g transform="translate(256 0)" clip-path="url(#tile)"><rect width="128" height="128" fill="#808080"/>
<path d="M101 13 L108 6 L129 8.333333333333332 L124.8 20 L109.4 22.799999999999997Z" fill="rgb(135,135,135)"/>
<path d="M77 52 L83.5 45.5 L103 47.666666666666664 L99.1 58.5 L84.8 61.1Z" fill="rgb(135,135,135)"/>
<path d="M1 116 L5 112 L17 113.33333333333333 L14.6 120 L5.8 121.6Z" fill="rgb(141,141,141)"/>
<path d="M62 73 L69.5 65.5 L92 68 L87.5 80.5 L71 83.5Z" fill="rgb(118,118,118)"/>
<path d="M52 75 L58.5 68.5 L78 70.66666666666667 L74.1 81.5 L59.8 84.1Z" fill="rgb(148,148,148)"/>
<path d="M46 86 L49.5 82.5 L60 83.66666666666667 L57.9 89.5 L50.2 90.9Z" fill="rgb(108,108,108)"/>
<path d="M120 20 L123.5 16.5 L134 17.666666666666668 L131.9 23.5 L124.2 24.9Z" fill="rgb(148,148,148)"/>
<path d="M80 59 L84 55 L96 56.333333333333336 L93.6 63 L84.8 64.6Z" fill="rgb(108,108,108)"/>
<path d="M116 106 L118 104 L124 104.66666666666667 L122.8 108 L118.4 108.8Z" fill="rgb(98,98,98)"/>
<path d="M71 52 L75.5 47.5 L89 49 L86.3 56.5 L76.4 58.3Z" fill="rgb(148,148,148)"/>
<path d="M87 32 L89.5 29.5 L97 30.333333333333332 L95.5 34.5 L90 35.5Z" fill="rgb(102,102,102)"/>
<path d="M24 79 L29.5 73.5 L46 75.33333333333333 L42.7 84.5 L30.6 86.7Z" fill="rgb(110,110,110)"/>
<path d="M26 94 L32.5 87.5 L52 89.66666666666667 L48.1 100.5 L33.8 103.1Z" fill="rgb(142,142,142)"/>
<path d="M0 115 L7 108 L28 110.33333333333333 L23.799999999999997 122 L8.399999999999999 124.8Z" fill="rgb(124,124,124)"/>
<path d="M18 72 L21.5 68.5 L32 69.66666666666667 L29.9 75.5 L22.2 76.9Z" fill="rgb(152,152,152)"/>
<path d="M96 106 L100.5 101.5 L114 103 L111.3 110.5 L101.4 112.3Z" fill="rgb(97,97,97)"/>
<path d="M75 49 L82.5 41.5 L105 44 L100.5 56.5 L84 59.5Z" fill="rgb(113,113,113)"/>
<path d="M63 121 L67.5 116.5 L81 118 L78.3 125.5 L68.4 127.3Z" fill="rgb(120,120,120)"/>
<path d="M47 82 L55.5 73.5 L81 76.33333333333333 L75.9 90.5 L57.2 93.9Z" fill="rgb(136,136,136)"/>
<path d="M32 121 L38.5 114.5 L58 116.66666666666667 L54.1 127.5 L39.8 130.1Z" fill="rgb(125,125,125)"/>
<path d="M48 10 L57 1 L84 4 L78.6 19 L58.8 22.6Z" fill="rgb(148,148,148)"/>
<path d="M114 125 L116 123 L122 123.66666666666667 L120.8 127 L116.4 127.8Z" fill="rgb(113,113,113)"/>
<path d="M0 38 L9 29 L36 32 L30.6 47 L10.8 50.6Z" fill="rgb(97,97,97)"/>
<path d="M96 126 L98.5 123.5 L106 124.33333333333333 L104.5 128.5 L99 129.5Z" fill="rgb(124,124,124)"/>
<path d="M8 33 L24 37 L29 49 M91 80 L83 91 L91 104 M58 7 L62 19 L55 24" fill="none" stroke="#666666" stroke-width="1.5"/><path d="M8 31 L24 35 M85 90 L93 103" fill="none" stroke="#acacac" stroke-width="1.2"/>
</g>
<g transform="translate(384 0)" clip-path="url(#tile)"><rect width="128" height="128" fill="#808080"/>
<path d="M-8 17 Q20 3 51 14 T138 6 L135 34 Q92 24 65 33 T-8 38Z" fill="#969696"/><path d="M-7 100 Q40 78 79 96 T140 88 L140 132 L-8 134Z" fill="#707070"/><path d="M18 60 Q40 47 53 55 T99 58 L106 72 Q58 61 25 74Z" fill="#898989"/>
<path d="M93 51l3 -1" stroke="rgb(135,135,135)" stroke-width="1.2"/>
<path d="M88 12l8 -1" stroke="rgb(127,127,127)" stroke-width="1.2"/>
<path d="M50 83l3 -1" stroke="rgb(141,141,141)" stroke-width="1.2"/>
<path d="M34 18l10 -1" stroke="rgb(127,127,127)" stroke-width="1.2"/>
<path d="M27 33l9 -1" stroke="rgb(138,138,138)" stroke-width="1.2"/>
<path d="M25 16l5 -1" stroke="rgb(120,120,120)" stroke-width="1.2"/>
<path d="M76 24l4 -1" stroke="rgb(113,113,113)" stroke-width="1.2"/>
<path d="M56 114l3 -1" stroke="rgb(134,134,134)" stroke-width="1.2"/>
<path d="M11 0l10 -1" stroke="rgb(121,121,121)" stroke-width="1.2"/>
<path d="M126 90l8 -1" stroke="rgb(121,121,121)" stroke-width="1.2"/>
<path d="M58 109l7 -1" stroke="rgb(121,121,121)" stroke-width="1.2"/>
<path d="M100 5l7 -1" stroke="rgb(114,114,114)" stroke-width="1.2"/>
<path d="M1 55l7 -1" stroke="rgb(143,143,143)" stroke-width="1.2"/>
<path d="M9 41l4 -1" stroke="rgb(119,119,119)" stroke-width="1.2"/>
<path d="M48 9l4 -1" stroke="rgb(128,128,128)" stroke-width="1.2"/>
<path d="M120 100l8 -1" stroke="rgb(114,114,114)" stroke-width="1.2"/>
<path d="M60 110l4 -1" stroke="rgb(142,142,142)" stroke-width="1.2"/>
<path d="M35 49l4 -1" stroke="rgb(146,146,146)" stroke-width="1.2"/>
<path d="M101 108l3 -1" stroke="rgb(141,141,141)" stroke-width="1.2"/>
<path d="M126 98l5 -1" stroke="rgb(133,133,133)" stroke-width="1.2"/>
<path d="M16 30l8 -1" stroke="rgb(114,114,114)" stroke-width="1.2"/>
<path d="M69 38l9 -1" stroke="rgb(132,132,132)" stroke-width="1.2"/>
<path d="M54 101l10 -1" stroke="rgb(124,124,124)" stroke-width="1.2"/>
<path d="M102 20l6 -1" stroke="rgb(142,142,142)" stroke-width="1.2"/>
<path d="M14 18l3 -1" stroke="rgb(140,140,140)" stroke-width="1.2"/>
<path d="M27 65l6 -1" stroke="rgb(133,133,133)" stroke-width="1.2"/>
<path d="M81 30l10 -1" stroke="rgb(130,130,130)" stroke-width="1.2"/>
<path d="M39 89l3 -1" stroke="rgb(144,144,144)" stroke-width="1.2"/>
<path d="M44 111l10 -1" stroke="rgb(127,127,127)" stroke-width="1.2"/>
<path d="M53 73l8 -1" stroke="rgb(149,149,149)" stroke-width="1.2"/>
<path d="M92 29l4 -1" stroke="rgb(132,132,132)" stroke-width="1.2"/>
<path d="M108 99l5 -1" stroke="rgb(121,121,121)" stroke-width="1.2"/>
<path d="M108 66l9 -1" stroke="rgb(148,148,148)" stroke-width="1.2"/>
<path d="M35 27l7 -1" stroke="rgb(149,149,149)" stroke-width="1.2"/>
<path d="M31 84l5 -1" stroke="rgb(121,121,121)" stroke-width="1.2"/>
<path d="M60 61l8 -1" stroke="rgb(137,137,137)" stroke-width="1.2"/>
</g>
<g transform="translate(0 128)" clip-path="url(#tile)"><rect width="128" height="128" fill="#808080"/>
<path d="M-8 -4 L-2 132" stroke="#666666" stroke-width="2"/><path d="M-4 -8 L132 -4" stroke="#a1a1a1" stroke-width="1.8"/>
<path d="M0 -4 L6 132" stroke="#666666" stroke-width="2"/><path d="M-4 0 L132 4" stroke="#a1a1a1" stroke-width="1.8"/>
<path d="M8 -4 L14 132" stroke="#666666" stroke-width="2"/><path d="M-4 8 L132 12" stroke="#a1a1a1" stroke-width="1.8"/>
<path d="M16 -4 L22 132" stroke="#666666" stroke-width="2"/><path d="M-4 16 L132 20" stroke="#a1a1a1" stroke-width="1.8"/>
<path d="M24 -4 L30 132" stroke="#666666" stroke-width="2"/><path d="M-4 24 L132 28" stroke="#a1a1a1" stroke-width="1.8"/>
<path d="M32 -4 L38 132" stroke="#666666" stroke-width="2"/><path d="M-4 32 L132 36" stroke="#a1a1a1" stroke-width="1.8"/>
<path d="M40 -4 L46 132" stroke="#666666" stroke-width="2"/><path d="M-4 40 L132 44" stroke="#a1a1a1" stroke-width="1.8"/>
<path d="M48 -4 L54 132" stroke="#666666" stroke-width="2"/><path d="M-4 48 L132 52" stroke="#a1a1a1" stroke-width="1.8"/>
<path d="M56 -4 L62 132" stroke="#666666" stroke-width="2"/><path d="M-4 56 L132 60" stroke="#a1a1a1" stroke-width="1.8"/>
<path d="M64 -4 L70 132" stroke="#666666" stroke-width="2"/><path d="M-4 64 L132 68" stroke="#a1a1a1" stroke-width="1.8"/>
<path d="M72 -4 L78 132" stroke="#666666" stroke-width="2"/><path d="M-4 72 L132 76" stroke="#a1a1a1" stroke-width="1.8"/>
<path d="M80 -4 L86 132" stroke="#666666" stroke-width="2"/><path d="M-4 80 L132 84" stroke="#a1a1a1" stroke-width="1.8"/>
<path d="M88 -4 L94 132" stroke="#666666" stroke-width="2"/><path d="M-4 88 L132 92" stroke="#a1a1a1" stroke-width="1.8"/>
<path d="M96 -4 L102 132" stroke="#666666" stroke-width="2"/><path d="M-4 96 L132 100" stroke="#a1a1a1" stroke-width="1.8"/>
<path d="M104 -4 L110 132" stroke="#666666" stroke-width="2"/><path d="M-4 104 L132 108" stroke="#a1a1a1" stroke-width="1.8"/>
<path d="M112 -4 L118 132" stroke="#666666" stroke-width="2"/><path d="M-4 112 L132 116" stroke="#a1a1a1" stroke-width="1.8"/>
<path d="M120 -4 L126 132" stroke="#666666" stroke-width="2"/><path d="M-4 120 L132 124" stroke="#a1a1a1" stroke-width="1.8"/>
<path d="M128 -4 L134 132" stroke="#666666" stroke-width="2"/><path d="M-4 128 L132 132" stroke="#a1a1a1" stroke-width="1.8"/>
<path d="M136 -4 L142 132" stroke="#666666" stroke-width="2"/><path d="M-4 136 L132 140" stroke="#a1a1a1" stroke-width="1.8"/>
<path d="M4 126 L9 112 L4 98 L9 84 L4 70 L9 56 L4 42 L9 28 L4 14" stroke="#555555" stroke-width="2" fill="none"/>
</g>
<g transform="translate(128 128)" clip-path="url(#tile)"><rect width="128" height="128" fill="#808080"/>
<ellipse cx="4" cy="2" rx="7" ry="3.8500000000000005" fill="rgb(164,164,164)"/>
<ellipse cx="42" cy="52" rx="10" ry="5.5" fill="rgb(134,134,134)"/>
<ellipse cx="43" cy="34" rx="9" ry="4.95" fill="rgb(125,125,125)"/>
<ellipse cx="32" cy="85" rx="4" ry="2.2" fill="rgb(91,91,91)"/>
<ellipse cx="9" cy="27" rx="3" ry="2" fill="rgb(102,102,102)"/>
<ellipse cx="98" cy="53" rx="5" ry="2.75" fill="rgb(93,93,93)"/>
<ellipse cx="0" cy="96" rx="12" ry="6.6000000000000005" fill="rgb(136,136,136)"/>
<ellipse cx="73" cy="2" rx="3" ry="2" fill="rgb(155,155,155)"/>
<ellipse cx="17" cy="114" rx="13" ry="7.15" fill="rgb(148,148,148)"/>
<ellipse cx="98" cy="109" rx="8" ry="4.4" fill="rgb(161,161,161)"/>
<ellipse cx="55" cy="102" rx="12" ry="6.6000000000000005" fill="rgb(100,100,100)"/>
<ellipse cx="63" cy="15" rx="10" ry="5.5" fill="rgb(141,141,141)"/>
<ellipse cx="99" cy="118" rx="7" ry="3.8500000000000005" fill="rgb(141,141,141)"/>
<ellipse cx="105" cy="99" rx="9" ry="4.95" fill="rgb(127,127,127)"/>
<ellipse cx="42" cy="22" rx="6" ry="3.3000000000000003" fill="rgb(138,138,138)"/>
<ellipse cx="0" cy="63" rx="8" ry="4.4" fill="rgb(156,156,156)"/>
<ellipse cx="22" cy="28" rx="6" ry="3.3000000000000003" fill="rgb(105,105,105)"/>
<ellipse cx="2" cy="90" rx="10" ry="5.5" fill="rgb(149,149,149)"/>
<ellipse cx="29" cy="96" rx="6" ry="3.3000000000000003" fill="rgb(120,120,120)"/>
<ellipse cx="50" cy="88" rx="8" ry="4.4" fill="rgb(103,103,103)"/>
<ellipse cx="66" cy="113" rx="4" ry="2.2" fill="rgb(117,117,117)"/>
<ellipse cx="50" cy="94" rx="8" ry="4.4" fill="rgb(164,164,164)"/>
<ellipse cx="97" cy="77" rx="10" ry="5.5" fill="rgb(89,89,89)"/>
<ellipse cx="64" cy="44" rx="5" ry="2.75" fill="rgb(102,102,102)"/>
<ellipse cx="32" cy="30" rx="11" ry="6.050000000000001" fill="rgb(173,173,173)"/>
<ellipse cx="26" cy="69" rx="3" ry="2" fill="rgb(123,123,123)"/>
<ellipse cx="4" cy="6" rx="4" ry="2.2" fill="rgb(125,125,125)"/>
<ellipse cx="12" cy="27" rx="8" ry="4.4" fill="rgb(176,176,176)"/>
<ellipse cx="56" cy="110" rx="4" ry="2.2" fill="rgb(151,151,151)"/>
<ellipse cx="35" cy="64" rx="10" ry="5.5" fill="rgb(134,134,134)"/>
<path d="M15 25q14 -4 29 2M72 67q14 -6 30 0M30 108q8 -3 21 0" fill="none" stroke="#b8b8b8" stroke-width="2"/>
</g>
<g transform="translate(256 128)" clip-path="url(#tile)"><rect width="128" height="128" fill="#808080"/>
<path d="M103 92 L113 87.5 L123 93 L113 97Z" fill="rgb(121,121,121)"/>
<path d="M10 35 L16 32.3 L22 36 L16 38Z" fill="rgb(119,119,119)"/>
<path d="M0 89 L5 86.75 L10 90 L5 91.5Z" fill="rgb(127,127,127)"/>
<path d="M27 89 L37 84.5 L47 90 L37 94Z" fill="rgb(132,132,132)"/>
<path d="M21 82 L30 77.95 L39 83 L30 86.5Z" fill="rgb(117,117,117)"/>
<path d="M-1 99 L9 94.5 L19 100 L9 104Z" fill="rgb(108,108,108)"/>
<path d="M22 12 L32 7.5 L42 13 L32 17Z" fill="rgb(111,111,111)"/>
<path d="M9 4 L12 2.65 L15 5 L12 5.5Z" fill="rgb(107,107,107)"/>
<path d="M42 31 L49 27.85 L56 32 L49 34.5Z" fill="rgb(132,132,132)"/>
<path d="M23 34 L33 29.5 L43 35 L33 39Z" fill="rgb(129,129,129)"/>
<path d="M96 112 L103 108.85 L110 113 L103 115.5Z" fill="rgb(136,136,136)"/>
<path d="M-5 34 L5 29.5 L15 35 L5 39Z" fill="rgb(124,124,124)"/>
<path d="M34 62 L38 60.2 L42 63 L38 64Z" fill="rgb(131,131,131)"/>
<path d="M8 92 L17 87.95 L26 93 L17 96.5Z" fill="rgb(123,123,123)"/>
<path d="M23 49 L33 44.5 L43 50 L33 54Z" fill="rgb(117,117,117)"/>
<path d="M32 10 L37 7.75 L42 11 L37 12.5Z" fill="rgb(126,126,126)"/>
<path d="M123 113 L127 111.2 L131 114 L127 115Z" fill="rgb(128,128,128)"/>
<path d="M74 70 L78 68.2 L82 71 L78 72Z" fill="rgb(105,105,105)"/>
<path d="M12 48l19 -2M84 92l21 -2M61 13l11 1" stroke="#bababa" stroke-width="1.5"/><path d="M14 50l15 -1M85 94l18 -2" stroke="#656565" stroke-width="1"/>
</g>
<g transform="translate(384 128)" clip-path="url(#tile)"><rect width="128" height="128" fill="#808080"/>
<path d="M-6 9 Q30 12 68 8 T134 10" stroke="rgb(116,116,116)" fill="none" stroke-width="3"/>
<path d="M-6 25 Q30 28 68 24 T134 26" stroke="rgb(142,142,142)" fill="none" stroke-width="3"/>
<path d="M-6 41 Q30 44 68 40 T134 42" stroke="rgb(116,116,116)" fill="none" stroke-width="3"/>
<path d="M-6 57 Q30 60 68 56 T134 58" stroke="rgb(142,142,142)" fill="none" stroke-width="3"/>
<path d="M-6 73 Q30 76 68 72 T134 74" stroke="rgb(116,116,116)" fill="none" stroke-width="3"/>
<path d="M-6 89 Q30 92 68 88 T134 90" stroke="rgb(142,142,142)" fill="none" stroke-width="3"/>
<path d="M-6 105 Q30 108 68 104 T134 106" stroke="rgb(116,116,116)" fill="none" stroke-width="3"/>
<path d="M-6 121 Q30 124 68 120 T134 122" stroke="rgb(142,142,142)" fill="none" stroke-width="3"/>
<path d="M23 16 Q15 35 21 53 M91 69 Q102 82 96 109" stroke="#a0a0a0" fill="none" stroke-width="5" stroke-linecap="round"/><path d="M60 35l5 -1M42 96l3 1" stroke="#5f5f5f" stroke-width="2"/>
</g>
</svg>
